<?xml version="1.0" encoding="iso-8859-1"?>
<!-- Generator: Adobe Illustrator 19.0.0, SVG Export Plug-In . SVG Version: 6.00 Build 0)  -->
<svg version="1.1" id="Capa_1" xmlns="http://www.w3.org/2000/svg" xmlns:xlink="http://www.w3.org/1999/xlink" x="0px" y="0px"
	 viewBox="0 0 347.297 347.297" style="enable-background:new 0 0 347.297 347.297;" xml:space="preserve">
<g>
	<g>
		<path d="M156.248,228.697l-3,2.5c-3.9,3.4-8.9,5.2-14,5.2c-2.3,0-4.6-0.4-6.8-1.1c-7.3-2.3-12.8-8.2-14.6-15.6l-6.4-25.9
			l-25.8,1.8l-49.2,116.7l50.1-21.9c0.2-0.1,0.3-0.1,0.5-0.2c5.2-2,10.9,0.6,12.9,5.8l19.3,51.2l43.5-103.1L156.248,228.697z"/>
	</g>
</g>
<g>
	<g>
		<path d="M173.648,58.097c-27.7,0-50.2,22.4-50.2,50.1c0.1,27.7,22.5,50.1,50.2,50.1s50.2-22.3,50.2-50
			S201.348,58.097,173.648,58.097z"/>
	</g>
</g>
<g>
	<g>
		<path d="M286.348,106.597l-29.7-18.6c-4.1-2.5-5.8-7.7-4-12.2l13.1-32.5c0.1-0.3,0.1-0.5,0.1-0.8c0-1.1-0.9-1.9-2-1.8l-35,2.4
			c-4.8,0.3-9.2-2.9-10.4-7.6l-8.4-34c-0.2-0.7-0.7-1.2-1.3-1.4s-1.3,0-1.8,0.4l-26.9,22.6c-3.7,3.1-9.2,3.1-12.9,0l-26.8-22.6
			c-0.5-0.5-1.2-0.6-1.8-0.4c-0.7,0.2-1.2,0.7-1.3,1.4l-8.4,34c-1.2,4.7-5.6,7.9-10.4,7.6l-35-2.4c-0.3,0-0.5,0-0.8,0.1
			c-1,0.4-1.5,1.5-1.1,2.5l13.1,32.5c1.8,4.5,0.1,9.6-4,12.2l-29.7,18.6c-0.6,0.3-0.9,0.9-0.9,1.6c0,0.7,0.3,1.3,0.9,1.7l29.7,18.5
			c4.1,2.5,5.8,7.7,4,12.2l-13.1,32.4c-0.2,0.5-0.2,1,0,1.5c0.2,0.4,0.6,0.8,1.1,1l0.2,0.1c0.3,0,0.5,0,0.7,0l34.9-2.5
			c0.2,0,0.5,0,0.7,0c4.6,0,8.6,3.1,9.7,7.6l8.4,34c0.2,0.7,0.7,1.2,1.3,1.4c0.6,0.3,1.3,0.1,1.8-0.3l26.9-22.6
			c3.7-3.1,9.2-3.1,12.9,0l26.8,22.6c0.5,0.5,1.2,0.6,1.8,0.4c0.7-0.2,1.1-0.7,1.3-1.4l8.4-34c1.2-4.8,5.5-7.9,10.4-7.6l34.9,2.5
			c0.3,0.1,0.5,0.1,0.7,0l0.2-0.1c0.5-0.1,0.9-0.5,1.1-1s0.2-1,0-1.5l-13.2-32.5c-1.8-4.5-0.1-9.6,4-12.2l29.8-18.5
			c0.6-0.4,0.9-1,0.9-1.7C287.248,107.497,286.948,106.897,286.348,106.597z M173.648,178.397c-38.8,0-70.2-31.3-70.2-70.1
			s31.5-70.2,70.2-70.2c38.8-0.1,70.2,31.4,70.2,70.1C243.748,146.897,212.348,178.297,173.648,178.397z"/>
	</g>
</g>
<g>
	<g>
		<path d="M261.648,195.497l-25.8-1.8l-6.4,25.9c-0.8,3.2-2.3,6.2-4.5,8.8c-7.8,9.3-21.6,10.5-30.9,2.7l-20.4-16.9l-1.4,1.1l11,26.1
			l44.7,105.9l19.3-51.2c0.1-0.2,0.1-0.3,0.2-0.5c2.2-5.1,8.1-7.4,13.2-5.2l50.2,21.7L261.648,195.497z"/>
	</g>
</g>
<g>
</g>
<g>
</g>
<g>
</g>
<g>
</g>
<g>
</g>
<g>
</g>
<g>
</g>
<g>
</g>
<g>
</g>
<g>
</g>
<g>
</g>
<g>
</g>
<g>
</g>
<g>
</g>
<g>
</g>
</svg>
