<?xml version="1.0" encoding="iso-8859-1"?>
<!-- Generator: Adobe Illustrator 19.0.0, SVG Export Plug-In . SVG Version: 6.00 Build 0)  -->
<svg version="1.1" id="Capa_1" xmlns="http://www.w3.org/2000/svg" xmlns:xlink="http://www.w3.org/1999/xlink" x="0px" y="0px"
	 viewBox="0 0 512 512" style="enable-background:new 0 0 512 512;" xml:space="preserve">
<g>
	<g>
		<path d="M329.226,353.924C326.619,349.047,321.537,346,316,346h-15v-75c0-8.291-6.709-15-15-15h-60c-8.291,0-15,6.709-15,15v75
			h-15c-5.537,0-10.62,3.047-13.228,7.925c-2.608,4.878-2.314,10.796,0.747,15.396l60,90c2.783,4.175,7.471,6.68,12.48,6.68
			c5.009,0,9.697-2.505,12.48-6.68l60-90C331.541,364.72,331.833,358.802,329.226,353.924z"/>
	</g>
</g>
<g>
	<g>
		<path d="M435.456,175.438c-1.32-17.926-8.597-34.649-21.414-47.466c-19.391-19.391-48.571-25.179-74.198-18.025
			C315.196,70.313,272.794,46,226,46c-70.342,0-128.276,54.067-134.326,124.087C39.188,183.344,0,231.141,0,286
			c0,66.167,54.833,120,121,120h50.918l-13.359-20.039c-9.214-13.843-10.078-31.538-2.241-46.172
			c5.391-10.093,14.253-17.549,24.683-21.226V271c0-24.814,20.186-45,45-45h60c24.814,0,45,20.186,45,45v47.563
			c10.43,3.677,19.292,11.133,24.683,21.226c7.837,14.634,6.973,32.329-2.227,46.157L340.086,406H391c66.167,0,121-53.833,121-120
			C512,236.495,480.947,193.555,435.456,175.438z"/>
	</g>
</g>
<g>
</g>
<g>
</g>
<g>
</g>
<g>
</g>
<g>
</g>
<g>
</g>
<g>
</g>
<g>
</g>
<g>
</g>
<g>
</g>
<g>
</g>
<g>
</g>
<g>
</g>
<g>
</g>
<g>
</g>
</svg>
